<svg width="866" height="138" viewBox="0 0 866 138" fill="none" xmlns="http://www.w3.org/2000/svg">
<path d="M119.171 0C184.988 0 238.343 52.473 238.343 117.202C238.343 124.104 237.736 130.868 236.572 137.443C225.423 127.623 209.49 119.339 190.359 113.382C193.365 105.062 195.008 96.0632 195.008 86.6702C195.008 44.243 161.495 9.84889 120.156 9.84889C78.8167 9.84889 45.3045 44.243 45.3045 86.6702C45.3045 95.8452 46.8717 104.645 49.7464 112.802C29.8378 118.775 13.264 127.242 1.75241 137.339C0.600409 130.797 0 124.068 0 117.202C0 52.473 53.3549 0 119.171 0Z" fill="white"/>
<path fill-rule="evenodd" clip-rule="evenodd" d="M120.041 118.299C147.669 118.299 170.065 95.9029 170.065 68.2757C170.065 40.6485 147.669 18.2522 120.041 18.2522C92.4141 18.2522 70.0179 40.6485 70.0179 68.2757C70.0179 95.9029 92.4141 118.299 120.041 118.299ZM130.873 48.8023L119.898 33.3488L108.922 48.8023L90.4465 54.1978L102.139 69.1441L101.696 87.9321L119.898 81.716L138.1 87.9321L137.657 69.1441L149.349 54.1978L130.873 48.8023Z" fill="white"/>
<path d="M375.559 27.3286V42.8086H334.519V61.0486H372.319V76.6486H334.519V111.209H317.479V27.3286H375.559Z" fill="white"/>
<path d="M424.927 82.4086V50.6086H441.247V110.489H424.927V102.929C424.927 102.929 420.487 110.009 410.047 111.449C409.207 111.569 408.367 111.569 407.527 111.569C403.567 111.809 399.247 111.209 395.287 109.529C391.447 107.849 387.967 105.209 385.447 102.209C383.047 99.2086 381.367 95.8486 380.407 92.6086C379.327 89.3686 378.847 86.0086 378.727 82.8886V50.6086H394.927V80.6086C394.927 81.0886 394.927 81.6886 395.047 82.1686C395.047 84.3286 395.527 86.3686 396.247 88.1686C396.967 90.0886 397.927 91.6486 399.007 92.8486C400.087 94.0486 401.287 94.8886 402.607 95.6086C404.047 96.2086 405.607 96.6886 407.527 96.9286H411.007C411.247 96.8086 411.487 96.8086 411.607 96.8086C420.247 95.8486 424.927 89.6086 424.927 82.4086Z" fill="white"/>
<path d="M488.91 50.6086V63.9286H473.07V87.3286C473.07 94.0486 473.55 95.0086 475.11 96.2086C477.15 97.8886 483.87 97.4086 488.91 96.5686V111.449C486.27 111.809 483.63 111.929 480.99 111.929C475.23 111.929 469.95 111.089 465.63 108.329C457.83 103.289 456.75 95.2486 456.75 87.3286V63.9286H444.51V50.6086H456.75V38.1286L473.07 29.6086V50.6086H488.91Z" fill="white"/>
<path d="M539.312 82.4086V50.6086H555.632V110.489H539.312V102.929C539.312 102.929 534.872 110.009 524.432 111.449C523.592 111.569 522.752 111.569 521.912 111.569C517.952 111.809 513.632 111.209 509.672 109.529C505.832 107.849 502.352 105.209 499.832 102.209C497.432 99.2086 495.752 95.8486 494.792 92.6086C493.712 89.3686 493.232 86.0086 493.112 82.8886V50.6086H509.312V80.6086C509.312 81.0886 509.312 81.6886 509.432 82.1686C509.432 84.3286 509.912 86.3686 510.632 88.1686C511.352 90.0886 512.312 91.6486 513.392 92.8486C514.472 94.0486 515.672 94.8886 516.992 95.6086C518.432 96.2086 519.992 96.6886 521.912 96.9286H525.392C525.632 96.8086 525.872 96.8086 525.992 96.8086C534.632 95.8486 539.312 89.6086 539.312 82.4086Z" fill="white"/>
<path d="M597.294 49.5286C601.254 49.2886 605.574 49.8886 609.414 51.5686C609.654 51.6885 609.864 51.7785 610.074 51.8685C610.284 51.9585 610.494 52.0485 610.734 52.1686L606.654 69.3286C606.534 69.1485 606.384 68.9685 606.234 68.7885C606.084 68.6085 605.934 68.4285 605.814 68.2486C604.614 67.0486 603.534 66.2086 602.094 65.4886C600.774 64.8886 599.214 64.4086 597.294 64.1686C596.925 64.1686 596.569 64.1545 596.223 64.1408C595.558 64.1145 594.926 64.0896 594.294 64.1686H593.814C593.574 64.2886 593.334 64.2886 593.094 64.2886C584.574 65.2486 579.774 71.4886 579.774 78.6886V110.489H563.574V50.6086H579.774V58.1686C579.774 58.1686 584.214 51.0886 594.774 49.6486C595.614 49.5286 596.454 49.5286 597.294 49.5286Z" fill="white"/>
<path fill-rule="evenodd" clip-rule="evenodd" d="M676.294 80.4886C676.294 82.5286 676.055 84.5686 675.695 86.4886H626.734C629.495 92.4886 636.575 96.8086 644.854 96.8086C650.495 96.8086 655.654 94.8886 659.255 91.5286L674.734 97.6486C668.255 106.289 657.094 111.689 644.854 111.689C625.055 111.689 609.094 97.6486 609.094 80.4886C609.094 63.4486 624.094 49.4086 642.695 49.4086C661.174 49.4086 676.294 63.4486 676.294 80.4886ZM642.695 64.2886C635.375 64.2886 629.014 68.6086 626.495 74.6086H658.774C656.255 68.6086 650.015 64.2886 642.695 64.2886Z" fill="white"/>
<path fill-rule="evenodd" clip-rule="evenodd" d="M728.394 52.8886C732.354 54.4486 736.074 56.7286 739.074 59.6086C745.074 65.2486 748.434 73.1686 748.434 80.9686C748.434 88.8886 745.074 96.6886 739.074 102.449C736.074 105.329 732.354 107.609 728.394 109.169C724.314 110.729 719.994 111.449 715.674 111.449C711.234 111.449 706.914 110.489 703.074 108.809C699.114 107.249 695.634 104.849 692.754 101.969C691.314 100.409 689.994 98.7286 688.914 96.9286V110.969H681.594V26.9686H688.914V65.1286C689.994 63.3286 691.314 61.6486 692.874 60.0886C695.634 57.2086 699.114 54.8086 703.074 53.2486C706.914 51.5686 711.234 50.6086 715.674 50.6086C719.994 50.6086 724.314 51.3286 728.394 52.8886ZM715.674 104.849C722.394 104.729 728.994 102.089 733.674 97.6486C738.354 93.3286 741.114 87.2086 741.114 80.9686C741.114 74.8486 738.354 68.7286 733.674 64.2886C728.994 59.8486 722.394 57.3286 715.674 57.2086C708.954 57.0886 702.114 59.3686 697.074 63.8086C694.554 65.9686 692.394 68.6086 690.954 71.6086C689.634 74.4886 688.914 77.7286 688.914 80.9686C688.914 84.2086 689.634 87.4486 691.074 90.4486C692.394 93.3286 694.554 96.0886 697.074 98.2486C702.114 102.569 708.954 104.849 715.674 104.849Z" fill="white"/>
<path d="M760.755 27.0886V111.089H753.435V27.0886H760.755Z" fill="white"/>
<path d="M813.074 50.9686H820.394V110.969H813.074V99.6886C812.594 100.649 811.994 101.609 811.274 102.689C809.354 105.329 806.594 107.609 803.354 109.169C800.114 110.729 796.394 111.449 792.794 111.449C789.314 111.569 785.474 110.969 782.114 109.649C778.754 108.209 775.754 105.929 773.474 103.289C769.034 97.8886 767.474 91.2886 767.594 85.1686V50.9686H774.914L774.794 85.1686C774.914 87.6886 775.154 90.3286 775.994 92.6086C776.714 95.0086 777.914 97.2886 779.474 99.0886C782.594 102.689 787.514 104.729 792.794 104.849C798.194 105.089 803.474 103.529 807.074 99.6886C808.994 97.8886 810.434 95.6086 811.394 93.0886C812.354 90.5686 812.834 87.9286 813.074 85.1686V50.9686Z" fill="white"/>
<path d="M845.484 52.8886C848.724 51.3286 852.444 50.6086 855.924 50.4886C859.284 50.4886 862.644 50.9686 865.884 52.1686L864.204 59.1286C861.804 57.9286 858.924 57.2086 855.924 57.2086C850.644 56.9686 845.364 58.5286 841.764 62.3686C839.844 64.1686 838.404 66.4486 837.444 68.9686C836.484 71.4886 836.004 74.1286 835.764 76.8886V110.969H828.444V50.9686H835.764V62.3686C836.244 61.4086 836.844 60.3286 837.564 59.3686C839.484 56.7286 842.244 54.4486 845.484 52.8886Z" fill="white"/>
</svg>
