<svg width="167" height="97" viewBox="0 0 167 97" fill="none" xmlns="http://www.w3.org/2000/svg">
<path fill-rule="evenodd" clip-rule="evenodd" d="M166.84 82.0412C166.84 36.7311 129.492 0 83.42 0C37.3484 0 0 36.7311 0 82.0412C0 84.718 0.130355 87.3649 0.385164 89.9761C0.650199 92.692 3.88738 93.8719 6.11389 92.2941C12.9141 87.4753 21.4722 83.321 31.3216 80.0644C33.2186 79.4372 34.256 77.3866 33.7205 75.4616C32.4132 70.762 31.7132 65.7995 31.7132 60.6691C31.7132 30.9701 55.1717 6.89422 84.1092 6.89422C113.047 6.89422 136.505 30.9701 136.505 60.6691C136.505 65.9538 135.762 71.0605 134.378 75.8852C133.828 77.8025 134.844 79.8581 136.731 80.5048C146.071 83.706 154.203 87.7242 160.714 92.3535C162.94 93.9357 166.181 92.7588 166.449 90.0413C166.708 87.409 166.84 84.7403 166.84 82.0412ZM119.045 47.793C119.045 67.132 103.368 82.8094 84.0289 82.8094C64.6899 82.8094 49.0125 67.132 49.0125 47.793C49.0125 28.4539 64.6899 12.7766 84.0289 12.7766C103.368 12.7766 119.045 28.4539 119.045 47.793ZM81.0749 27.3618C82.4701 25.3974 85.3867 25.3974 86.7819 27.3618L90.9069 33.1697C91.3632 33.8121 92.0229 34.2818 92.7793 34.5026L99.5863 36.4905C101.962 37.1843 102.887 40.0574 101.362 42.0067L97.1316 47.4142C96.6326 48.0521 96.3702 48.8434 96.3893 49.6532L96.5515 56.5362C96.6089 58.9702 94.2253 60.7177 91.9214 59.9309L85.0596 57.5875C84.3263 57.3371 83.5306 57.3371 82.7973 57.5875L75.9355 59.9309C73.6315 60.7177 71.248 58.9702 71.3053 56.5362L71.4675 49.6532C71.4866 48.8434 71.2243 48.0521 70.7252 47.4142L66.495 42.0067C64.9701 40.0574 65.8949 37.1843 68.2706 36.4905L75.0775 34.5026C75.8339 34.2818 76.4936 33.8121 76.9499 33.1697L81.0749 27.3618Z" fill="white"/>
</svg>
