<svg width="697" height="137" viewBox="0 0 697 137" fill="none" xmlns="http://www.w3.org/2000/svg">
<path fill-rule="evenodd" clip-rule="evenodd" d="M166.84 102.436C166.84 57.126 129.492 20.3949 83.42 20.3949C37.3484 20.3949 0 57.126 0 102.436C0 105.113 0.130355 107.76 0.385164 110.371C0.650199 113.087 3.88738 114.267 6.11389 112.689C12.9141 107.87 21.4722 103.716 31.3216 100.459C33.2186 99.8321 34.256 97.7814 33.7205 95.8565C32.4132 91.1569 31.7132 86.1944 31.7132 81.064C31.7132 51.365 55.1717 27.2891 84.1092 27.2891C113.047 27.2891 136.505 51.365 136.505 81.064C136.505 86.3487 135.762 91.4554 134.378 96.2801C133.828 98.1974 134.844 100.253 136.731 100.9C146.071 104.101 154.203 108.119 160.714 112.748C162.94 114.331 166.181 113.154 166.449 110.436C166.708 107.804 166.84 105.135 166.84 102.436ZM119.045 68.1879C119.045 87.5269 103.368 103.204 84.0289 103.204C64.6899 103.204 49.0125 87.5269 49.0125 68.1879C49.0125 48.8488 64.6899 33.1715 84.0289 33.1715C103.368 33.1715 119.045 48.8488 119.045 68.1879ZM81.0749 47.7567C82.4701 45.7923 85.3867 45.7923 86.7819 47.7567L90.9069 53.5646C91.3632 54.207 92.0229 54.6767 92.7793 54.8975L99.5863 56.8854C101.962 57.5792 102.887 60.4523 101.362 62.4016L97.1316 67.8091C96.6326 68.447 96.3702 69.2383 96.3893 70.0481L96.5515 76.9311C96.6089 79.3651 94.2253 81.1126 91.9214 80.3258L85.0596 77.9824C84.3263 77.7319 83.5306 77.732 82.7973 77.9824L75.9355 80.3258C73.6315 81.1126 71.248 79.3651 71.3053 76.9311L71.4675 70.0481C71.4866 69.2383 71.2243 68.447 70.7252 67.8091L66.495 62.4016C64.9701 60.4523 65.8949 57.5792 68.2706 56.8854L75.0775 54.8975C75.8339 54.6767 76.4936 54.207 76.9499 53.5646L81.0749 47.7567Z" fill="white"/>
<path d="M271.04 46.5H236.84V61.7H268.34V74.7H236.84V103.5H222.64V33.6H271.04V46.5ZM313.181 53H326.781V102.9H313.181V96.6C313.181 96.6 309.481 102.5 300.781 103.7C300.081 103.8 299.381 103.8 298.681 103.8C295.381 104 291.781 103.5 288.481 102.1C285.281 100.7 282.381 98.5 280.281 96C278.281 93.5 276.881 90.7 276.081 88C275.181 85.3 274.781 82.5 274.681 79.9V53H288.181V66.3V76.3V78C288.181 78.4 288.181 78.9 288.281 79.3C288.281 81.1 288.681 82.8 289.281 84.3C289.881 85.9 290.681 87.2 291.581 88.2C292.481 89.2 293.481 89.9 294.581 90.5C295.781 91 297.081 91.4 298.681 91.6C299.481 91.6 300.381 91.6 301.081 91.6C301.181 91.6 301.181 91.6 301.181 91.6C301.281 91.6 301.481 91.6 301.581 91.6C301.781 91.5 301.981 91.5 302.081 91.5C309.281 90.7 313.181 85.5 313.181 79.5V53ZM367.499 64.1H354.299V83.6C354.299 89.2 354.699 90 355.999 91C357.699 92.4 363.299 92 367.499 91.3V103.7C365.299 104 363.099 104.1 360.899 104.1C356.099 104.1 351.699 103.4 348.099 101.1C341.599 96.9 340.699 90.2 340.699 83.6V64.1H330.499V53H340.699V42.6L354.299 35.5V53H367.499V64.1ZM410.501 53H424.101V102.9H410.501V96.6C410.501 96.6 406.801 102.5 398.101 103.7C397.401 103.8 396.701 103.8 396.001 103.8C392.701 104 389.101 103.5 385.801 102.1C382.601 100.7 379.701 98.5 377.601 96C375.601 93.5 374.201 90.7 373.401 88C372.501 85.3 372.101 82.5 372.001 79.9V53H385.501V66.3V76.3V78C385.501 78.4 385.501 78.9 385.601 79.3C385.601 81.1 386.001 82.8 386.601 84.3C387.201 85.9 388.001 87.2 388.901 88.2C389.801 89.2 390.801 89.9 391.901 90.5C393.101 91 394.401 91.4 396.001 91.6C396.801 91.6 397.701 91.6 398.401 91.6C398.501 91.6 398.501 91.6 398.501 91.6C398.601 91.6 398.801 91.6 398.901 91.6C399.101 91.5 399.301 91.5 399.401 91.5C406.601 90.7 410.501 85.5 410.501 79.5V53ZM469.92 53.8C470.32 54 470.62 54.1 471.02 54.3L467.62 68.6C467.42 68.3 467.12 68 466.92 67.7C465.92 66.7 465.02 66 463.82 65.4C462.72 64.9 461.42 64.5 459.82 64.3C458.92 64.3 458.12 64.2 457.32 64.3C457.32 64.3 457.32 64.3 457.22 64.3C457.12 64.3 457.02 64.3 456.92 64.3C456.72 64.4 456.52 64.4 456.32 64.4C449.22 65.2 445.22 70.4 445.22 76.4V102.9H431.72V53H445.22V59.3C445.22 59.3 448.92 53.4 457.72 52.2C458.42 52.1 459.12 52.1 459.82 52.1C463.12 51.9 466.72 52.4 469.92 53.8ZM526.153 82.9H522.953H485.353C487.653 87.9 493.553 91.5 500.453 91.5C505.153 91.5 509.453 89.9 512.453 87.1L525.353 92.2C519.953 99.4 510.653 103.9 500.453 103.9C483.953 103.9 470.653 92.2 470.653 77.9C470.653 63.7 483.153 52 498.653 52C514.053 52 526.653 63.7 526.653 77.9C526.653 79.6 526.453 81.3 526.153 82.9ZM485.153 73H512.053C509.953 68 504.753 64.4 498.653 64.4C492.553 64.4 487.253 68 485.153 73ZM581.47 59.9C586.57 64.8 589.37 71.5 589.37 78.1C589.37 84.8 586.57 91.5 581.47 96.3C578.87 98.8 575.77 100.8 572.37 102.1C568.97 103.4 565.17 104 561.47 104C557.77 103.9 554.07 103.1 550.77 101.7C547.47 100.2 544.57 98.2 542.27 95.7C541.77 95.2 541.27 94.6 540.87 94.1V103.1H532.07V33.1H540.87V62.2C541.27 61.6 541.77 61.1 542.27 60.6C544.57 58.1 547.47 56 550.77 54.6C554.07 53.1 557.77 52.4 561.47 52.3C565.17 52.2 568.87 52.9 572.37 54.2C575.77 55.5 578.87 57.5 581.47 59.9ZM574.97 90.6C578.47 87.4 580.57 82.8 580.57 78.1C580.57 73.5 578.47 68.9 574.97 65.6C571.37 62.3 566.57 60.4 561.47 60.3C556.47 60.2 551.27 61.7 547.27 65C543.27 68.2 540.87 73.1 540.87 78.1C540.87 83.1 543.27 88.1 547.27 91.3C551.27 94.5 556.47 96.1 561.47 96C563.97 95.9 566.47 95.4 568.77 94.5C571.07 93.6 573.17 92.3 574.97 90.6ZM603.297 103.1H594.497V33.2H603.297V103.1ZM646.833 53.1H655.633V103.1H646.833V94.9C646.733 95.1 646.733 95.2 646.633 95.3C645.233 97.7 643.033 99.9 640.233 101.4C638.933 102.1 637.433 102.7 635.833 103.1C634.333 103.4 632.733 103.6 631.233 103.7C628.133 103.8 624.833 103.3 621.833 102C618.833 100.7 616.233 98.7 614.433 96.2C610.833 91.4 609.833 85.6 610.033 80.7V53.1H618.833V80.7V81.6V82.3C618.833 82.8 618.933 83.3 618.933 83.8C619.033 84.8 619.233 85.7 619.533 86.6C620.033 88.4 620.833 90.1 621.933 91.4C624.133 94 627.333 95.5 631.233 95.7C635.133 96 638.933 95.1 641.933 92.3C643.333 90.9 644.633 89.1 645.433 87.1C646.233 85.1 646.633 83 646.733 80.7C646.833 80.4 646.833 80.1 646.833 79.8V53.1ZM687.604 52.5C690.304 52.4 693.204 52.8 695.804 53.8L693.804 62.3C692.004 61.3 690.004 60.7 687.604 60.5C683.704 60.3 679.904 61.2 676.904 64C675.504 65.4 674.204 67.2 673.404 69.1C672.604 71.1 672.204 73.3 672.004 75.6C672.004 75.9 672.004 76.2 672.004 76.5V103.1H663.204V53.1H672.004V61.3C672.104 61.2 672.104 61.1 672.204 60.9C673.604 58.6 675.804 56.4 678.604 54.9C679.904 54.2 681.404 53.6 682.904 53.2C684.504 52.8 686.004 52.6 687.604 52.5Z" fill="white"/>
</svg>
