<?xml version="1.0" standalone="no"?>
<!DOCTYPE svg PUBLIC "-//W3C//DTD SVG 20010904//EN"
 "http://www.w3.org/TR/2001/REC-SVG-20010904/DTD/svg10.dtd">
<svg version="1.0" xmlns="http://www.w3.org/2000/svg"
 width="1336.000000pt" height="1336.000000pt" viewBox="0 0 1336.000000 1336.000000"
 preserveAspectRatio="xMidYMid meet">
<metadata>
Created by potrace 1.14, written by Peter Selinger 2001-2017
</metadata>
<g transform="translate(0.000000,1336.000000) scale(0.100000,-0.100000)"
fill="#000000" stroke="none">
<path d="M6378 10555 c-2 -1 -55 -6 -118 -9 -172 -10 -262 -16 -290 -22 -14
-3 -47 -7 -75 -10 -69 -6 -126 -13 -151 -18 -11 -2 -47 -7 -79 -10 -32 -4 -61
-8 -64 -10 -3 -2 -28 -7 -56 -10 -54 -7 -90 -14 -90 -16 0 -1 -11 -3 -25 -6
-66 -11 -336 -67 -342 -71 -5 -2 -16 -6 -25 -8 -10 -2 -65 -15 -123 -30 -58
-15 -112 -29 -120 -30 -8 -2 -16 -4 -17 -5 -2 -2 -6 -3 -10 -4 -32 -8 -105
-31 -140 -43 -23 -8 -45 -14 -48 -14 -3 0 -29 -8 -57 -18 -29 -11 -93 -34
-143 -51 -49 -18 -148 -55 -220 -83 -71 -28 -133 -50 -137 -49 -5 1 -8 -2 -8
-8 0 -5 -5 -10 -11 -10 -11 0 -24 -5 -164 -68 -157 -71 -489 -244 -600 -313
-16 -10 -37 -22 -45 -26 -21 -9 -314 -195 -320 -203 -3 -3 -23 -17 -45 -30
-22 -13 -45 -29 -51 -35 -6 -5 -37 -28 -68 -50 -52 -36 -149 -108 -186 -138
-8 -7 -35 -28 -60 -46 -25 -19 -52 -42 -62 -50 -9 -9 -30 -27 -48 -40 -18 -14
-46 -37 -62 -53 -17 -15 -32 -28 -34 -28 -2 0 -12 -8 -22 -17 -10 -10 -59 -54
-108 -98 -156 -140 -454 -445 -563 -575 -16 -19 -38 -45 -49 -58 -11 -13 -35
-42 -54 -65 -18 -22 -41 -49 -50 -59 -10 -10 -18 -20 -18 -23 0 -3 -5 -11 -10
-18 -6 -7 -23 -27 -39 -45 -15 -17 -54 -69 -87 -115 -32 -45 -67 -91 -76 -101
-10 -11 -18 -25 -18 -32 0 -7 -4 -14 -9 -16 -12 -4 -191 -274 -191 -288 0 -5
-4 -10 -8 -10 -5 0 -17 -17 -29 -37 -11 -21 -52 -92 -90 -158 -136 -233 -299
-567 -394 -810 -22 -55 -44 -109 -49 -120 -5 -11 -19 -49 -31 -85 -11 -36 -25
-71 -31 -77 -6 -7 -8 -13 -5 -13 3 0 0 -15 -8 -32 -7 -18 -13 -35 -13 -38 -1
-3 -3 -12 -6 -20 -3 -8 -15 -46 -26 -85 -12 -38 -28 -88 -35 -110 -8 -22 -17
-51 -19 -65 -3 -14 -17 -68 -32 -120 -15 -52 -27 -103 -27 -112 -1 -10 -4 -18
-7 -18 -3 0 -6 -9 -7 -21 -1 -11 -8 -46 -15 -77 -7 -31 -13 -61 -14 -67 -1 -5
-3 -12 -4 -15 -3 -8 -8 -32 -14 -70 -4 -19 -9 -46 -11 -60 -3 -14 -8 -36 -10
-50 -3 -14 -8 -41 -11 -60 -3 -19 -7 -46 -10 -60 -5 -28 -12 -73 -19 -127 -3
-21 -7 -51 -10 -68 -7 -46 -15 -113 -21 -180 -3 -33 -7 -78 -9 -100 -20 -177
-27 -785 -12 -980 4 -49 9 -124 12 -165 10 -144 60 -226 165 -273 56 -25 160
-30 217 -11 39 13 181 101 211 131 7 7 20 13 28 13 8 0 14 5 14 10 0 6 7 13
17 17 9 4 55 31 102 60 47 30 131 80 186 111 55 31 102 59 105 62 3 3 86 46
185 95 99 50 183 95 187 100 4 6 8 7 8 3 0 -4 30 8 68 26 37 19 74 36 82 38 8
2 17 5 20 9 3 3 30 15 60 28 64 27 106 45 154 66 104 46 550 213 583 219 7 1
16 5 19 9 4 4 14 7 23 7 27 0 116 46 154 79 48 43 89 131 93 201 1 38 -9 100
-32 195 -20 77 -37 151 -40 165 -2 14 -8 45 -14 70 -5 25 -12 63 -15 85 -4 22
-9 51 -12 65 -2 14 -6 41 -8 60 -2 19 -4 35 -5 35 -2 0 -9 54 -15 120 -3 33
-7 76 -10 95 -20 181 -21 571 -1 785 10 108 25 232 31 266 2 9 7 39 11 66 6
46 8 57 19 106 3 12 8 38 11 57 8 43 10 51 27 123 8 31 12 57 9 57 -2 0 1 6 7
14 6 8 11 18 10 22 -2 5 3 29 10 54 7 25 14 50 15 55 1 6 5 16 9 23 5 6 6 12
2 12 -3 0 -1 8 4 18 6 11 12 30 15 43 2 13 16 58 31 99 25 74 29 85 36 105 1
6 18 46 36 90 18 43 33 82 33 86 0 7 65 149 123 269 17 36 35 67 39 68 5 2 8
12 8 22 0 10 3 20 8 22 4 2 20 28 36 58 47 89 148 255 158 258 4 2 8 8 8 14 0
5 39 65 87 132 113 158 131 180 278 350 112 131 424 436 445 436 5 0 10 4 12
8 1 5 30 30 63 57 33 26 62 51 65 54 3 3 31 24 63 45 31 22 57 43 57 48 0 4 5
8 11 8 6 0 28 14 49 30 21 17 43 30 49 30 6 0 11 5 11 10 0 6 6 10 14 10 8 0
16 4 18 8 2 6 134 88 278 172 54 32 315 157 418 199 96 40 349 129 417 146 20
5 25 6 57 16 18 6 40 12 48 14 8 1 42 10 75 18 33 9 71 18 85 21 14 3 36 8 50
11 14 3 40 7 59 10 18 2 41 7 50 9 9 3 34 8 56 11 22 2 51 7 65 10 14 3 45 7
70 10 25 2 65 7 90 10 114 14 202 17 430 18 221 0 313 -4 435 -18 22 -2 65 -7
95 -10 81 -9 295 -45 345 -59 6 -1 37 -8 70 -15 33 -7 67 -15 75 -18 8 -3 24
-8 35 -10 41 -8 282 -82 325 -100 8 -3 17 -7 20 -8 3 -1 18 -7 33 -13 16 -7
32 -12 36 -12 7 0 30 -9 146 -59 11 -5 38 -17 60 -26 116 -50 391 -194 434
-227 13 -10 30 -18 38 -18 7 0 16 -7 19 -15 4 -8 12 -15 18 -15 12 0 217 -136
281 -187 17 -13 35 -27 40 -31 31 -23 101 -77 105 -82 3 -3 32 -27 65 -55 153
-127 408 -383 522 -526 15 -19 33 -41 40 -49 49 -59 79 -98 144 -190 42 -58
84 -120 94 -137 11 -18 23 -33 27 -33 4 0 8 -5 8 -10 0 -6 18 -38 40 -71 22
-33 40 -62 40 -64 0 -2 23 -43 51 -92 75 -129 196 -385 259 -548 16 -39 23
-60 24 -65 1 -3 4 -9 7 -15 28 -46 160 -511 182 -640 3 -16 12 -68 20 -115 9
-47 18 -104 21 -127 3 -22 7 -52 10 -65 5 -23 9 -58 23 -228 15 -172 7 -703
-11 -810 -3 -14 -8 -52 -11 -85 -3 -33 -8 -71 -10 -85 -2 -14 -6 -41 -9 -60
-3 -19 -8 -46 -11 -60 -2 -14 -7 -38 -10 -55 -11 -70 -45 -226 -52 -245 -3 -8
-8 -26 -10 -40 -2 -14 -13 -56 -25 -93 -25 -84 -22 -187 8 -232 10 -16 17 -31
15 -33 -1 -2 14 -24 35 -49 35 -39 117 -89 164 -98 14 -3 75 -25 125 -45 11
-4 36 -13 55 -20 19 -7 44 -16 55 -20 11 -4 85 -34 165 -65 162 -64 158 -62
325 -136 166 -74 459 -219 463 -230 2 -5 10 -9 18 -9 8 0 32 -11 54 -25 22
-14 40 -22 40 -18 0 5 4 3 8 -3 4 -5 27 -22 52 -35 25 -14 63 -36 85 -49 22
-13 49 -28 60 -34 11 -6 45 -27 75 -47 30 -19 75 -48 100 -65 25 -16 52 -33
61 -39 9 -5 51 -34 93 -63 96 -67 135 -82 216 -86 39 -2 114 15 150 34 62 33
123 117 132 180 2 14 8 28 13 32 6 5 5 8 -2 8 -7 0 -10 6 -8 13 24 70 38 748
21 1002 -15 216 -18 251 -31 350 -2 22 -7 63 -11 90 -3 28 -8 61 -10 75 -3 14
-7 43 -9 65 -3 22 -7 51 -10 65 -3 14 -8 45 -11 69 -2 24 -7 48 -11 54 -3 5
-8 26 -10 46 -3 36 -10 76 -13 76 -1 0 -3 11 -5 25 -2 14 -11 57 -20 95 -9 39
-18 79 -20 91 -4 18 -15 58 -70 269 -35 133 -155 490 -205 610 -7 17 -18 44
-25 60 -69 168 -102 239 -191 420 -117 237 -175 348 -186 353 -5 2 -8 7 -8 12
0 8 -41 80 -72 128 -10 15 -21 34 -25 42 -3 8 -28 47 -55 87 -26 40 -48 77
-48 83 0 5 -4 10 -10 10 -5 0 -10 5 -10 10 0 6 -9 20 -20 32 -11 12 -20 28
-20 35 0 7 -3 13 -7 13 -5 0 -21 21 -38 48 -16 26 -33 52 -38 57 -4 6 -28 37
-52 70 -25 33 -48 65 -52 70 -5 6 -21 28 -37 50 -17 22 -32 42 -36 45 -3 3
-32 39 -65 80 -54 68 -163 199 -189 226 -6 6 -45 49 -86 94 -118 131 -407 415
-516 507 -12 10 -45 38 -74 63 -149 126 -227 190 -234 190 -3 0 -15 8 -25 18
-25 22 -25 22 -159 120 -61 45 -116 82 -121 82 -5 0 -11 4 -13 8 -4 11 -156
112 -167 112 -5 0 -11 4 -13 8 -3 9 -272 171 -378 229 -83 45 -364 186 -455
228 -44 20 -92 43 -107 51 -15 8 -31 15 -35 15 -5 1 -24 7 -43 16 -131 55
-487 187 -535 198 -5 1 -17 5 -25 8 -8 3 -44 14 -80 25 -36 10 -90 27 -120 36
-30 9 -64 18 -76 20 -11 2 -44 11 -72 20 -29 8 -52 12 -52 9 0 -3 -7 0 -15 7
-8 7 -15 10 -15 7 0 -3 -21 0 -47 8 -26 8 -49 12 -51 10 -3 -2 -12 0 -21 4 -9
5 -29 11 -46 14 -16 3 -66 13 -110 22 -44 9 -89 17 -100 19 -11 2 -33 6 -50
10 -16 3 -43 8 -60 10 -16 2 -57 9 -90 14 -55 10 -84 14 -200 28 -109 14 -198
23 -275 29 -30 2 -55 5 -55 5 0 8 -808 23 -817 15z"/>
<path d="M6568 9535 c-2 -1 -39 -5 -83 -9 -93 -7 -140 -12 -262 -32 -21 -3
-45 -10 -54 -15 -9 -4 -19 -6 -22 -3 -3 3 -22 1 -42 -6 -20 -7 -50 -14 -66
-17 -17 -2 -48 -11 -70 -18 -21 -8 -39 -12 -39 -10 0 2 -24 -6 -52 -16 -29
-11 -60 -22 -68 -24 -29 -6 -216 -83 -300 -124 -104 -50 -221 -114 -277 -152
-23 -16 -46 -29 -51 -29 -6 0 -12 -4 -14 -8 -1 -4 -32 -28 -68 -52 -36 -25
-67 -47 -70 -50 -3 -3 -39 -32 -80 -64 -79 -62 -333 -314 -385 -380 -16 -22
-56 -73 -87 -115 -32 -42 -62 -81 -68 -88 -5 -7 -10 -14 -10 -17 0 -3 -17 -31
-38 -63 -50 -74 -69 -106 -72 -118 -1 -5 -10 -21 -20 -35 -33 -48 -128 -257
-174 -385 -62 -172 -67 -187 -72 -210 -2 -11 -13 -56 -23 -99 -11 -44 -23 -93
-25 -110 -3 -17 -7 -40 -10 -51 -2 -11 -7 -40 -11 -65 -4 -25 -9 -52 -10 -60
-7 -37 -17 -161 -19 -231 -1 -41 -6 -80 -9 -86 -4 -7 -4 -14 1 -17 5 -3 7 -20
5 -38 -2 -18 -4 -37 -3 -43 0 -5 2 -46 4 -90 4 -100 19 -240 32 -310 2 -11 9
-47 14 -80 5 -33 18 -92 29 -132 10 -40 16 -75 13 -78 -3 -3 0 -5 7 -5 7 0 10
-4 6 -9 -3 -6 4 -34 15 -63 11 -29 20 -58 20 -65 0 -6 5 -24 12 -40 6 -15 12
-31 13 -35 2 -5 4 -10 5 -13 1 -3 3 -8 4 -12 1 -5 7 -17 13 -28 6 -11 11 -23
12 -28 0 -4 8 -23 16 -43 8 -20 15 -39 15 -41 0 -24 205 -397 252 -458 4 -5
34 -46 67 -90 32 -44 68 -91 80 -105 11 -14 33 -40 48 -59 40 -49 251 -259
302 -301 24 -19 48 -40 55 -46 6 -5 47 -37 91 -69 44 -33 82 -62 85 -65 7 -7
43 -29 60 -37 8 -4 17 -9 20 -13 9 -11 110 -70 120 -70 6 0 10 -4 10 -9 0 -5
11 -12 25 -15 14 -4 25 -11 25 -16 0 -6 6 -10 14 -10 7 0 33 -11 57 -24 100
-56 421 -180 519 -201 33 -7 116 -28 130 -33 8 -3 24 -7 35 -8 17 -3 37 -7
105 -20 8 -2 38 -5 65 -8 28 -4 61 -8 75 -11 109 -22 549 -23 667 -1 17 3 102
16 148 22 11 1 20 3 20 4 0 1 14 4 30 6 53 8 198 44 285 72 47 14 87 26 90 27
3 0 10 3 15 6 9 6 83 32 95 34 3 0 27 11 54 23 27 12 55 22 62 22 8 0 14 3 14
8 0 4 21 16 46 26 48 19 260 133 279 148 5 5 39 27 75 50 36 23 69 45 75 50 5
5 41 31 79 60 38 28 76 58 86 67 9 9 34 31 56 49 96 83 235 225 314 322 19 24
41 49 48 57 7 7 10 13 5 13 -4 0 -3 4 2 8 28 20 134 171 207 295 37 64 109
204 109 214 1 5 5 13 9 18 17 20 78 173 73 179 -4 3 -1 6 5 6 7 0 11 3 10 8
-2 6 11 46 39 122 3 8 7 20 8 25 2 6 14 51 28 100 24 84 31 114 42 175 3 14 7
36 10 50 13 62 16 78 20 120 3 25 7 59 10 75 13 77 26 419 17 438 -2 5 -6 41
-7 80 -3 63 -10 137 -20 202 -2 11 -6 38 -9 60 -3 22 -15 81 -26 130 -11 50
-22 97 -23 105 -2 8 -9 35 -16 60 -7 25 -15 52 -17 60 -3 12 -35 109 -48 145
-2 6 -3 12 -3 15 0 3 -10 24 -22 48 -12 23 -19 42 -16 42 4 0 -1 12 -9 28 -31
57 -86 179 -86 190 0 7 -4 12 -8 12 -4 0 -18 21 -31 46 -22 47 -143 244 -167
274 -7 8 -34 44 -61 80 -26 36 -52 70 -58 76 -5 6 -35 40 -65 75 -65 75 -207
217 -275 274 -27 22 -53 45 -59 51 -25 24 -206 153 -276 197 -41 25 -79 50
-85 54 -23 18 -236 123 -320 158 -156 64 -167 69 -180 70 -5 0 -14 3 -20 7
-10 6 -145 47 -174 53 -9 2 -36 8 -61 15 -53 14 -57 15 -175 36 -49 9 -108 18
-130 20 -22 2 -62 7 -90 10 -51 5 -412 13 -417 9z m227 -1059 c86 -32 110 -53
207 -190 39 -56 88 -123 108 -151 20 -27 68 -95 107 -150 39 -55 82 -109 95
-121 25 -23 100 -69 108 -68 3 1 10 0 15 -2 6 -2 35 -10 65 -18 30 -8 78 -21
105 -29 151 -45 304 -89 332 -97 95 -24 180 -93 210 -173 15 -39 25 -176 13
-187 -3 -3 -15 -25 -27 -50 -13 -25 -35 -59 -50 -76 -16 -17 -37 -44 -48 -59
-11 -15 -40 -53 -65 -84 -25 -31 -77 -96 -115 -146 -38 -49 -74 -95 -80 -101
-9 -9 -18 -27 -56 -105 -6 -12 -5 -208 2 -474 0 -5 0 -19 0 -30 0 -11 0 -60 0
-108 1 -81 -2 -95 -31 -153 -25 -49 -45 -72 -84 -98 -101 -69 -161 -70 -341
-9 -71 24 -137 46 -145 48 -8 3 -93 31 -189 64 -148 51 -182 59 -230 56 -54
-3 -74 -7 -116 -25 -11 -5 -60 -22 -110 -39 -49 -16 -164 -55 -255 -87 -191
-66 -254 -74 -337 -43 -62 24 -123 82 -153 147 -26 53 -27 79 -18 482 6 263 1
293 -63 377 -65 85 -192 247 -199 253 -3 3 -23 30 -45 60 -22 30 -47 62 -57
71 -10 9 -18 21 -18 28 0 6 -4 11 -9 11 -21 0 -54 96 -54 160 -1 104 16 151
80 211 51 49 75 60 233 104 74 21 142 41 150 45 8 5 29 11 45 14 42 7 224 63
268 81 43 18 115 86 146 138 13 21 28 43 34 50 7 6 24 30 39 52 14 22 33 49
42 60 9 11 43 58 75 105 136 195 151 211 222 244 50 23 148 29 194 12z"/>
</g>
</svg>
