<svg width="239" height="138" viewBox="0 0 239 138" fill="none" xmlns="http://www.w3.org/2000/svg">
<path d="M238.343 117.202C238.343 52.473 184.988 0 119.171 0C53.3549 0 0 52.473 0 117.202C0 124.068 0.600409 130.797 1.75241 137.339C13.264 127.242 29.8378 118.775 49.7464 112.802C46.8717 104.645 45.3045 95.8452 45.3045 86.6702C45.3045 44.243 78.8167 9.84889 120.156 9.84889C161.495 9.84889 195.008 44.243 195.008 86.6702C195.008 96.0632 193.365 105.062 190.359 113.382C209.49 119.339 225.423 127.623 236.572 137.443C237.736 130.868 238.343 124.104 238.343 117.202Z" fill="white"/>
<path fill-rule="evenodd" clip-rule="evenodd" d="M170.065 68.2757C170.065 95.9029 147.669 118.299 120.041 118.299C92.4141 118.299 70.0179 95.9029 70.0179 68.2757C70.0179 40.6485 92.4141 18.2522 120.041 18.2522C147.669 18.2522 170.065 40.6485 170.065 68.2757ZM119.898 33.3488L130.873 48.8023L149.349 54.1978L137.657 69.1441L138.1 87.9321L119.898 81.716L101.696 87.9321L102.139 69.1441L90.4465 54.1978L108.922 48.8023L119.898 33.3488Z" fill="white"/>
</svg>
