<?xml version="1.0" standalone="no"?>
<!DOCTYPE svg PUBLIC "-//W3C//DTD SVG 20010904//EN"
 "http://www.w3.org/TR/2001/REC-SVG-20010904/DTD/svg10.dtd">
<svg version="1.0" xmlns="http://www.w3.org/2000/svg"
 width="260.000000pt" height="260.000000pt" viewBox="0 0 260.000000 260.000000"
 preserveAspectRatio="xMidYMid meet">
<metadata>
Created by potrace 1.14, written by Peter Selinger 2001-2017
</metadata>
<g transform="translate(0.000000,260.000000) scale(0.100000,-0.100000)"
fill="#000000" stroke="none">
<path d="M1065 1965 c-409 -85 -738 -361 -880 -739 -52 -138 -68 -229 -69
-396 -1 -85 2 -167 7 -182 l7 -28 68 49 c97 71 222 131 378 183 l31 10 -19 67
c-45 160 -22 383 54 536 84 167 218 295 383 367 214 94 491 70 685 -59 260
-172 398 -499 335 -794 -9 -41 -18 -85 -21 -99 -5 -23 0 -27 61 -48 101 -35
224 -97 311 -157 43 -30 79 -53 80 -52 1 1 5 25 9 52 12 88 6 289 -10 345 -2
8 -7 31 -10 50 -10 59 -46 161 -88 250 -138 286 -396 512 -696 609 -191 62
-425 76 -616 36z"/>
<path d="M1185 1791 c-167 -47 -298 -172 -355 -341 -7 -19 -13 -78 -15 -130
-3 -104 17 -186 69 -274 60 -102 193 -198 315 -226 70 -16 221 -7 281 17 156
64 254 164 304 313 28 83 32 199 11 279 -45 172 -186 315 -355 361 -70 20
-187 20 -255 1z m178 -212 c53 -76 56 -78 165 -109 53 -15 71 -25 64 -33 -5
-7 -30 -40 -56 -75 l-48 -63 1 -94 1 -94 -90 31 -91 30 -89 -30 -90 -30 0 94
0 95 -55 69 c-30 38 -55 71 -55 74 0 3 40 17 90 32 l89 27 53 73 c29 41 55 74
58 74 3 0 27 -32 53 -71z"/>
</g>
</svg>
